<?xml version="1.0" encoding="UTF-8" standalone="no"?>
<!-- Svg Vector Icons : http://www.onlinewebfonts.com/icon -->

<svg
   xmlns:dc="http://purl.org/dc/elements/1.1/"
   xmlns:cc="http://creativecommons.org/ns#"
   xmlns:rdf="http://www.w3.org/1999/02/22-rdf-syntax-ns#"
   xmlns:svg="http://www.w3.org/2000/svg"
   xmlns="http://www.w3.org/2000/svg"
   xmlns:sodipodi="http://sodipodi.sourceforge.net/DTD/sodipodi-0.dtd"
   xmlns:inkscape="http://www.inkscape.org/namespaces/inkscape"
   version="1.1"
   x="0px"
   y="0px"
   viewBox="0 0 1000 1000"
   enable-background="new 0 0 1000 1000"
   xml:space="preserve"
   id="svg2"
   inkscape:version="0.91 r13725"
   sodipodi:docname="nube.svg"><defs
     id="defs47" /><sodipodi:namedview
     pagecolor="#ffffff"
     bordercolor="#666666"
     borderopacity="1"
     objecttolerance="10"
     gridtolerance="10"
     guidetolerance="10"
     inkscape:pageopacity="0"
     inkscape:pageshadow="2"
     inkscape:window-width="1301"
     inkscape:window-height="744"
     id="namedview45"
     showgrid="false"
     inkscape:zoom="0.236"
     inkscape:cx="500"
     inkscape:cy="500"
     inkscape:window-x="65"
     inkscape:window-y="24"
     inkscape:window-maximized="1"
     inkscape:current-layer="svg2" /><metadata
     id="metadata4"> Svg Vector Icons : http://www.onlinewebfonts.com/icon <rdf:RDF><cc:Work
     rdf:about=""><dc:format>image/svg+xml</dc:format><dc:type
       rdf:resource="http://purl.org/dc/dcmitype/StillImage" /></cc:Work></rdf:RDF></metadata><g
     id="g6"><g
       id="g8"><g
         id="Cloud_x5F_Wind"><g
           id="g11"><path
             d="M427.9,125.3c72.5,0,139.8,36.1,180.1,96.7l14.1,21.2l25.4-2.1c3.6-0.3,7.2-0.6,10.9-0.6c71.5,0,129.7,58.2,129.7,129.7c0,23.9,19.3,43.2,43.2,43.2s43.2-19.4,43.2-43.2c0-116.8-93.2-212.3-209.1-216.1C608.4,81.5,521.2,38.8,427.9,38.8c-160.7,0-292.6,125.9-302.1,284.3C55.5,360,10,433.4,10,514.4c0,119.2,97,216.2,216.2,216.2c23.9,0,43.2-19.4,43.2-43.2s-19.3-43.2-43.2-43.2c-71.5,0-129.7-58.2-129.7-129.7c0-54.9,34.9-104,86.9-122.3l30.1-10.6l-1.7-40.1C211.8,222.3,308.7,125.3,427.9,125.3z M860.3,442.4c-34.6,0-67.2,13.5-91.7,38c-16.9,16.9-16.9,44.2,0,61.1c16.9,16.9,44.2,16.9,61.1,0c8.2-8.2,19-12.7,30.6-12.7c23.8,0,43.2,19.4,43.2,43.2c0,23.8-19.4,43.2-43.2,43.2H427.9c-23.9,0-43.2,19.4-43.2,43.2c0,23.9,19.3,43.2,43.2,43.2h432.4c71.5,0,129.7-58.2,129.7-129.7C990,500.5,931.8,442.4,860.3,442.4z M759.4,730.6H370.3c-23.9,0-43.2,19.4-43.2,43.2c0,23.9,19.3,43.2,43.2,43.2h389.1c15.9,0,28.8,12.9,28.8,28.8s-12.9,28.8-28.8,28.8c-9.1,0-17.5-4.2-23-11.4c-14.4-19.1-41.5-22.9-60.6-8.4c-19.1,14.4-22.8,41.5-8.4,60.6c22,29.1,55.5,45.8,91.9,45.8c63.6,0,115.3-51.7,115.3-115.3S823,730.6,759.4,730.6z"
             id="path13" /></g></g></g><g
       id="g15" /><g
       id="g17" /><g
       id="g19" /><g
       id="g21" /><g
       id="g23" /><g
       id="g25" /><g
       id="g27" /><g
       id="g29" /><g
       id="g31" /><g
       id="g33" /><g
       id="g35" /><g
       id="g37" /><g
       id="g39" /><g
       id="g41" /><g
       id="g43" /></g><path
     style="fill:#ffffff"
     d="M 196.40802,725.93131 C 148.77329,719.91716 106.90796,697.40271 69.286593,657.56763 8.321665,593.01538 -4.6651208,497.23136 36.526292,415.94401 49.30789,390.72075 90.879627,345.55495 111.57,334.41244 c 13.18373,-7.0999 14.39293,-9.74389 21.12155,-46.18361 17.1904,-93.09686 77.47814,-173.07747 161.79998,-214.651662 117.94465,-58.151637 250.65008,-36.904946 343.65826,55.021112 25.91572,25.61422 28.82839,27.27608 53.73576,30.65954 53.23466,7.23151 116.115,48.39232 146.67055,96.00904 17.36928,27.06764 29.58136,63.64744 32.79606,98.23664 2.49432,26.83775 2.03403,28.83651 -9.57784,41.59234 -31.8958,35.03807 -73.5172,10.04367 -73.61508,-44.20719 -0.0339,-18.62899 -23.08788,-62.34586 -41.32038,-78.3542 -24.65178,-21.64457 -49.49649,-30.63405 -90.34204,-32.68821 l -36.29983,-1.82555 -11.65441,-18.42166 c -15.95296,-25.21624 -53.02279,-58.21521 -80.49686,-71.657 -82.88229,-40.55054 -177.63568,-28.39435 -244.68291,31.39108 -47.29233,42.17016 -67.40962,85.95825 -71.11709,154.79625 l -2.49996,46.4175 -27.52976,10.49694 c -114.546911,43.67605 -115.544258,203.44717 -1.53626,246.10302 12.6654,4.73873 29.54048,8.61589 37.50018,8.61589 28.80324,0 48.76923,18.10119 48.76923,44.21424 0,13.22712 -19.58901,34.81674 -33.8983,37.3603 -5.82627,1.03563 -22.31554,0.40296 -36.64283,-1.40594 z"
     id="path3375"
     inkscape:connector-curvature="0" /><path
     style="fill:#ffffff"
     d="m 413.13559,696.93034 c -27.02553,-11.34399 -34.144,-46.48938 -13.58205,-67.05746 l 11.64908,-11.65254 234.63583,-2.11865 c 221.63024,-2.00121 235.12117,-2.55806 243.39172,-10.04626 4.81572,-4.3602 10.88606,-14.38213 13.48962,-22.27097 3.92699,-11.89893 3.41258,-17.04134 -3.01843,-30.17453 -4.26373,-8.70715 -12.51916,-18.3044 -18.34543,-21.32721 -14.02572,-7.27691 -40.94144,-3.7345 -52.32326,6.88634 -27.28809,25.46358 -70.55809,7.7784 -70.55809,-28.83828 0,-17.62158 23.96283,-43.27657 51.47817,-55.11335 29.67615,-12.76635 70.80666,-12.74512 100.55411,0.0519 27.49238,11.82691 60.62852,47.1397 69.97577,74.57236 21.21037,62.24904 -7.98267,129.13675 -68.80729,157.65256 l -23.96348,11.23457 -233.05084,0.87937 c -128.17797,0.48365 -236.86441,-0.72137 -241.52543,-2.67784 z"
     id="path3385"
     inkscape:connector-curvature="0" /><path
     style="fill:#ffffff"
     d="m 728.78613,955.36296 c -20.43459,-6.21592 -36.75208,-16.81786 -52.19779,-33.91441 -20.24724,-22.41128 -21.27903,-41.81652 -3.18547,-59.91009 16.8154,-16.8154 36.09722,-16.70615 57.52933,0.32595 27.59827,21.93234 57.20339,13.95516 57.20339,-15.41361 0,-6.94522 -2.70495,-16.32897 -6.01106,-20.85279 -5.77517,-7.90233 -14.35389,-8.30828 -218.59076,-10.34377 l -212.5797,-2.11865 -10.2228,-11.88883 c -22.84062,-26.56301 -7.15402,-63.2922 29.34643,-68.71282 9.69879,-1.44035 106.29942,-2.00862 214.66806,-1.26282 l 197.0339,1.356 22.40542,10.12437 c 44.39323,20.06006 72.79111,69.08168 67.22814,116.05215 -7.90047,66.70711 -80.0925,115.5815 -142.62709,96.55932 z"
     id="path3387"
     inkscape:connector-curvature="0" /></svg>