<?xml version="1.0" encoding="UTF-8" standalone="no"?>
<svg
   xmlns:osb="http://www.openswatchbook.org/uri/2009/osb"
   xmlns:dc="http://purl.org/dc/elements/1.1/"
   xmlns:cc="http://creativecommons.org/ns#"
   xmlns:rdf="http://www.w3.org/1999/02/22-rdf-syntax-ns#"
   xmlns:svg="http://www.w3.org/2000/svg"
   xmlns="http://www.w3.org/2000/svg"
   xmlns:xlink="http://www.w3.org/1999/xlink"
   xmlns:sodipodi="http://sodipodi.sourceforge.net/DTD/sodipodi-0.dtd"
   xmlns:inkscape="http://www.inkscape.org/namespaces/inkscape"
   width="356.17523mm"
   height="284.35001mm"
   viewBox="0 0 356.17523 284.35"
   version="1.1"
   id="svg2"
   inkscape:version="0.91 r13725"
   sodipodi:docname="cortes.svg"
   inkscape:export-filename="/home/jguizzo/Documentos/proyecto_sensores/corte_laser/cortes.pdf"
   inkscape:export-xdpi="135"
   inkscape:export-ydpi="135">
  <metadata
     id="metadata67">
    <rdf:RDF>
      <cc:Work
         rdf:about="">
        <dc:format>image/svg+xml</dc:format>
        <dc:type
           rdf:resource="http://purl.org/dc/dcmitype/StillImage" />
        <dc:title></dc:title>
      </cc:Work>
    </rdf:RDF>
  </metadata>
  <defs
     id="defs65">
    <linearGradient
       id="linearGradient4199"
       osb:paint="solid">
      <stop
         style="stop-color:#000000;stop-opacity:1;"
         offset="0"
         id="stop4201" />
    </linearGradient>
    <linearGradient
       inkscape:collect="always"
       xlink:href="#linearGradient4199"
       id="linearGradient4204"
       gradientUnits="userSpaceOnUse"
       gradientTransform="translate(-1.2341777,-1.080914)"
       x1="9.1795921"
       y1="255.83868"
       x2="111.96049"
       y2="255.83868" />
    <linearGradient
       y2="255.83868"
       x2="111.96049"
       y1="255.83868"
       x1="9.1795921"
       gradientTransform="translate(-1.2341777,-1.080914)"
       gradientUnits="userSpaceOnUse"
       id="linearGradient4212"
       xlink:href="#linearGradient4199"
       inkscape:collect="always" />
    <linearGradient
       inkscape:collect="always"
       xlink:href="#linearGradient4199"
       id="linearGradient4538"
       gradientUnits="userSpaceOnUse"
       gradientTransform="translate(-6.0623717,-5.857216)"
       x1="9.1795921"
       y1="255.83868"
       x2="111.96049"
       y2="255.83868" />
    <linearGradient
       inkscape:collect="always"
       xlink:href="#linearGradient4199"
       id="linearGradient4542"
       gradientUnits="userSpaceOnUse"
       gradientTransform="translate(64.440169,3.3755524)"
       x1="9.1795921"
       y1="255.83868"
       x2="111.96049"
       y2="255.83868" />
    <linearGradient
       inkscape:collect="always"
       xlink:href="#linearGradient4199"
       id="linearGradient4542-9"
       gradientUnits="userSpaceOnUse"
       gradientTransform="translate(64.440169,3.3755524)"
       x1="9.1795921"
       y1="255.83868"
       x2="111.96049"
       y2="255.83868" />
    <linearGradient
       inkscape:collect="always"
       xlink:href="#linearGradient4199"
       id="linearGradient4555"
       gradientUnits="userSpaceOnUse"
       gradientTransform="translate(64.440169,3.3755524)"
       x1="9.1795921"
       y1="255.83868"
       x2="111.96049"
       y2="255.83868" />
    <linearGradient
       y2="255.83868"
       x2="111.96049"
       y1="255.83868"
       x1="9.1795921"
       gradientTransform="translate(64.440169,3.3755524)"
       gradientUnits="userSpaceOnUse"
       id="linearGradient4563"
       xlink:href="#linearGradient4199"
       inkscape:collect="always" />
    <linearGradient
       inkscape:collect="always"
       xlink:href="#linearGradient4199"
       id="linearGradient4608"
       gradientUnits="userSpaceOnUse"
       gradientTransform="translate(39.590019,-166.53525)"
       x1="9.1795921"
       y1="255.83868"
       x2="111.96049"
       y2="255.83868" />
    <linearGradient
       y2="255.83868"
       x2="111.96049"
       y1="255.83868"
       x1="9.1795921"
       gradientTransform="translate(39.590019,-166.53525)"
       gradientUnits="userSpaceOnUse"
       id="linearGradient4616"
       xlink:href="#linearGradient4199"
       inkscape:collect="always" />
    <linearGradient
       inkscape:collect="always"
       xlink:href="#linearGradient4199"
       id="linearGradient4643"
       gradientUnits="userSpaceOnUse"
       gradientTransform="translate(36.084622,-116.47881)"
       x1="9.1795921"
       y1="255.83868"
       x2="111.96049"
       y2="255.83868" />
    <linearGradient
       inkscape:collect="always"
       xlink:href="#linearGradient4199"
       id="linearGradient4663"
       gradientUnits="userSpaceOnUse"
       gradientTransform="translate(-268.49738,-220.90328)"
       x1="9.1795921"
       y1="255.83868"
       x2="111.96049"
       y2="255.83868" />
    <linearGradient
       inkscape:collect="always"
       xlink:href="#linearGradient4199"
       id="linearGradient4676"
       gradientUnits="userSpaceOnUse"
       gradientTransform="translate(-268.49738,-220.90328)"
       x1="9.1795921"
       y1="255.83868"
       x2="111.96049"
       y2="255.83868" />
    <linearGradient
       y2="255.83868"
       x2="111.96049"
       y1="255.83868"
       x1="9.1795921"
       gradientTransform="translate(-268.49738,-220.90328)"
       gradientUnits="userSpaceOnUse"
       id="linearGradient4684"
       xlink:href="#linearGradient4199"
       inkscape:collect="always" />
    <linearGradient
       inkscape:collect="always"
       xlink:href="#linearGradient4199"
       id="linearGradient4728"
       gradientUnits="userSpaceOnUse"
       gradientTransform="translate(-268.28564,-122.09967)"
       x1="9.1795921"
       y1="255.83868"
       x2="111.96049"
       y2="255.83868" />
    <linearGradient
       y2="255.83868"
       x2="111.96049"
       y1="255.83868"
       x1="9.1795921"
       gradientTransform="translate(-268.28564,-122.09967)"
       gradientUnits="userSpaceOnUse"
       id="linearGradient4736"
       xlink:href="#linearGradient4199"
       inkscape:collect="always" />
    <linearGradient
       inkscape:collect="always"
       xlink:href="#linearGradient4199"
       id="linearGradient4780"
       gradientUnits="userSpaceOnUse"
       gradientTransform="translate(-216.60919,-123.22316)"
       x1="9.1795921"
       y1="255.83868"
       x2="111.96049"
       y2="255.83868" />
    <linearGradient
       y2="255.83868"
       x2="111.96049"
       y1="255.83868"
       x1="9.1795921"
       gradientTransform="translate(-216.60919,-123.22316)"
       gradientUnits="userSpaceOnUse"
       id="linearGradient4788"
       xlink:href="#linearGradient4199"
       inkscape:collect="always" />
    <linearGradient
       inkscape:collect="always"
       xlink:href="#linearGradient4199"
       id="linearGradient4819"
       gradientUnits="userSpaceOnUse"
       gradientTransform="translate(-165.2509,-124.1594)"
       x1="9.1795921"
       y1="255.83868"
       x2="111.96049"
       y2="255.83868" />
    <linearGradient
       inkscape:collect="always"
       xlink:href="#linearGradient4199"
       id="linearGradient4832"
       gradientUnits="userSpaceOnUse"
       gradientTransform="translate(-165.2509,-124.1594)"
       x1="9.1795921"
       y1="255.83868"
       x2="111.96049"
       y2="255.83868" />
    <linearGradient
       y2="255.83868"
       x2="111.96049"
       y1="255.83868"
       x1="9.1795921"
       gradientTransform="translate(-165.2509,-124.1594)"
       gradientUnits="userSpaceOnUse"
       id="linearGradient4840"
       xlink:href="#linearGradient4199"
       inkscape:collect="always" />
    <linearGradient
       inkscape:collect="always"
       xlink:href="#linearGradient4199"
       id="linearGradient4871"
       gradientUnits="userSpaceOnUse"
       gradientTransform="translate(-113.09262,-124.15938)"
       x1="9.1795921"
       y1="255.83868"
       x2="111.96049"
       y2="255.83868" />
    <linearGradient
       inkscape:collect="always"
       xlink:href="#linearGradient4199"
       id="linearGradient4903"
       gradientUnits="userSpaceOnUse"
       gradientTransform="translate(-214.19667,-124.27964)"
       x1="9.1795921"
       y1="255.83868"
       x2="111.96049"
       y2="255.83868" />
    <linearGradient
       inkscape:collect="always"
       xlink:href="#linearGradient4199"
       id="linearGradient4923"
       gradientUnits="userSpaceOnUse"
       gradientTransform="translate(-265.87312,-122.62791)"
       x1="9.1795921"
       y1="255.83868"
       x2="111.96049"
       y2="255.83868" />
  </defs>
  <sodipodi:namedview
     pagecolor="#ffffff"
     bordercolor="#666666"
     borderopacity="1"
     objecttolerance="10"
     gridtolerance="10"
     guidetolerance="10"
     inkscape:pageopacity="0"
     inkscape:pageshadow="2"
     inkscape:window-width="1301"
     inkscape:window-height="744"
     id="namedview63"
     showgrid="false"
     inkscape:zoom="0.24934698"
     inkscape:cx="-110.29182"
     inkscape:cy="579.75175"
     inkscape:window-x="65"
     inkscape:window-y="24"
     inkscape:window-maximized="1"
     inkscape:current-layer="svg2"
     fit-margin-top="0.5"
     fit-margin-left="0.5"
     fit-margin-right="0.5"
     fit-margin-bottom="0.5" />
  <g
     id="Shape2DView"
     transform="matrix(1,0,0,-1,92.174983,142.175)">
    <path
       id="Shape2DView_nwe0000"
       d="m -91.5,141.5 183,0"
       style="fill:none;fill-rule:evenodd;stroke:#191919;stroke-width:0.34999999;stroke-miterlimit:4;stroke-dasharray:none"
       inkscape:connector-curvature="0" />
    <path
       id="Shape2DView_nwe0001"
       d="m -91.5,-141.5 0,283"
       style="fill:none;fill-rule:evenodd;stroke:#191919;stroke-width:0.34999999;stroke-miterlimit:4;stroke-dasharray:none"
       inkscape:connector-curvature="0" />
    <path
       id="Shape2DView_nwe0002"
       d="m 91.5,141.5 0,-283"
       style="fill:none;fill-rule:evenodd;stroke:#191919;stroke-width:0.34999999;stroke-miterlimit:4;stroke-dasharray:none"
       inkscape:connector-curvature="0" />
    <path
       id="Shape2DView_nwe0003"
       d="m 91.5,-141.5 -183,0"
       style="fill:none;fill-rule:evenodd;stroke:#191919;stroke-width:0.34999999;stroke-miterlimit:4;stroke-dasharray:none"
       inkscape:connector-curvature="0" />
    <circle
       cx="11.3"
       cy="31.549999"
       r="1.6"
       style="fill:none;stroke:#191919;stroke-width:0.34999999;stroke-miterlimit:4;stroke-dasharray:none"
       id="circle9" />
    <circle
       cx="27.299999"
       cy="47.5"
       r="10"
       style="fill:none;stroke:#191919;stroke-width:0.34999999;stroke-miterlimit:4;stroke-dasharray:none"
       id="circle11" />
    <circle
       cx="43.299999"
       cy="31.549999"
       r="1.6"
       style="fill:none;stroke:#191919;stroke-width:0.34999999;stroke-miterlimit:4;stroke-dasharray:none"
       id="circle13" />
    <circle
       cx="43.299999"
       cy="63.450001"
       r="1.6"
       style="fill:none;stroke:#191919;stroke-width:0.34999999;stroke-miterlimit:4;stroke-dasharray:none"
       id="circle15" />
    <circle
       cx="11.3"
       cy="63.450001"
       r="1.6"
       style="fill:none;stroke:#191919;stroke-width:0.34999999;stroke-miterlimit:4;stroke-dasharray:none"
       id="circle17" />
    <circle
       cx="11.3"
       cy="15.95"
       r="1.6"
       style="fill:none;stroke:#191919;stroke-width:0.34999999;stroke-miterlimit:4;stroke-dasharray:none"
       id="circle19" />
    <circle
       cx="43.299999"
       cy="15.95"
       r="1.6"
       style="fill:none;stroke:#191919;stroke-width:0.34999999;stroke-miterlimit:4;stroke-dasharray:none"
       id="circle21" />
    <circle
       cx="43.299999"
       cy="-31.549999"
       r="1.6"
       style="fill:none;stroke:#191919;stroke-width:0.34999999;stroke-miterlimit:4;stroke-dasharray:none"
       id="circle23" />
    <circle
       cx="43.299999"
       cy="-15.95"
       r="1.6"
       style="fill:none;stroke:#191919;stroke-width:0.34999999;stroke-miterlimit:4;stroke-dasharray:none"
       id="circle25" />
    <circle
       cx="11.3"
       cy="-15.95"
       r="1.6"
       style="fill:none;stroke:#191919;stroke-width:0.34999999;stroke-miterlimit:4;stroke-dasharray:none"
       id="circle27" />
    <circle
       cx="11.3"
       cy="-31.549999"
       r="1.6"
       style="fill:none;stroke:#191919;stroke-width:0.34999999;stroke-miterlimit:4;stroke-dasharray:none"
       id="circle29" />
    <circle
       cx="27.299999"
       cy="0"
       r="10"
       style="fill:none;stroke:#191919;stroke-width:0.34999999;stroke-miterlimit:4;stroke-dasharray:none"
       id="circle31" />
    <circle
       cx="11.3"
       cy="-79.050003"
       r="1.6"
       style="fill:none;stroke:#191919;stroke-width:0.34999999;stroke-miterlimit:4;stroke-dasharray:none"
       id="circle33" />
    <circle
       cx="11.3"
       cy="-63.450001"
       r="1.6"
       style="fill:none;stroke:#191919;stroke-width:0.34999999;stroke-miterlimit:4;stroke-dasharray:none"
       id="circle35" />
    <circle
       cx="27.299999"
       cy="-47.5"
       r="10"
       style="fill:none;stroke:#191919;stroke-width:0.34999999;stroke-miterlimit:4;stroke-dasharray:none"
       id="circle37" />
    <circle
       cx="43.299999"
       cy="-63.450001"
       r="1.6"
       style="fill:none;stroke:#191919;stroke-width:0.34999999;stroke-miterlimit:4;stroke-dasharray:none"
       id="circle39" />
    <circle
       cx="43.299999"
       cy="-79.050003"
       r="1.6"
       style="fill:none;stroke:#191919;stroke-width:0.34999999;stroke-miterlimit:4;stroke-dasharray:none"
       id="circle41" />
    <circle
       cx="-11.3"
       cy="-79.050003"
       r="1.6"
       style="fill:none;stroke:#191919;stroke-width:0.34999999;stroke-miterlimit:4;stroke-dasharray:none"
       id="circle43" />
    <circle
       cx="-43.299999"
       cy="-110.95"
       r="1.6"
       style="fill:none;stroke:#191919;stroke-width:0.34999999;stroke-miterlimit:4;stroke-dasharray:none"
       id="circle45" />
    <circle
       cx="-11.3"
       cy="-110.95"
       r="1.6"
       style="fill:none;stroke:#191919;stroke-width:0.34999999;stroke-miterlimit:4;stroke-dasharray:none"
       id="circle47" />
    <circle
       cx="11.3"
       cy="-110.95"
       r="1.6"
       style="fill:none;stroke:#191919;stroke-width:0.34999999;stroke-miterlimit:4;stroke-dasharray:none"
       id="circle49" />
    <circle
       cx="43.299999"
       cy="-110.95"
       r="1.6"
       style="fill:none;stroke:#191919;stroke-width:0.34999999;stroke-miterlimit:4;stroke-dasharray:none"
       id="circle51" />
    <circle
       cx="-43.299999"
       cy="-79.050003"
       r="1.6"
       style="fill:none;stroke:#191919;stroke-width:0.34999999;stroke-miterlimit:4;stroke-dasharray:none"
       id="circle53" />
    <circle
       cx="-27.299999"
       cy="-95"
       r="10"
       style="fill:none;stroke:#191919;stroke-width:0.34999999;stroke-miterlimit:4;stroke-dasharray:none"
       id="circle55" />
    <circle
       cx="27.299999"
       cy="-95"
       r="10"
       style="fill:none;stroke:#191919;stroke-width:0.34999999;stroke-miterlimit:4;stroke-dasharray:none"
       id="circle57" />
    <circle
       cx="-70"
       cy="0"
       r="10.5"
       style="fill:none;stroke:#191919;stroke-width:0.34999999;stroke-miterlimit:4;stroke-dasharray:none"
       id="circle59" />
    <title
       id="title61">Shape2DView</title>
  </g>
  <text
     xml:space="preserve"
     style="font-style:normal;font-weight:normal;font-size:12.62037754px;line-height:125%;font-family:sans-serif;letter-spacing:0px;word-spacing:0px;fill:url(#linearGradient4538);fill-opacity:1;stroke:#ff0006;stroke-width:0.28222224;stroke-linecap:butt;stroke-linejoin:miter;stroke-miterlimit:4;stroke-dasharray:none;stroke-opacity:0.95169079"
     x="3.018626"
     y="253.46303"
     id="text3395"
     sodipodi:linespacing="125%"
     transform="scale(0.93585981,1.0685361)"><tspan
       sodipodi:role="line"
       id="tspan3397"
       x="3.018626"
       y="253.46303"
       style="fill:url(#linearGradient4538);fill-opacity:0;stroke:#ff0006;stroke-width:0.28222224;stroke-miterlimit:4;stroke-dasharray:none;stroke-opacity:0.95169079">Allin-Wayra v1.1</tspan></text>
  <text
     xml:space="preserve"
     style="font-style:normal;font-weight:normal;font-size:12.62037754px;line-height:125%;font-family:sans-serif;letter-spacing:0px;word-spacing:0px;fill:url(#linearGradient4542);fill-opacity:1;stroke:#ff0006;stroke-width:0.28222224;stroke-linecap:butt;stroke-linejoin:miter;stroke-miterlimit:4;stroke-dasharray:none;stroke-opacity:0.95169079"
     x="73.521164"
     y="262.69574"
     id="text3395-6"
     sodipodi:linespacing="125%"
     transform="scale(0.93585982,1.0685361)"><tspan
       sodipodi:role="line"
       id="tspan3397-7"
       x="73.521164"
       y="262.69574"
       style="font-size:9.09259987px;fill:url(#linearGradient4542);fill-opacity:0;stroke:#ff0006;stroke-width:0.28222224;stroke-miterlimit:4;stroke-dasharray:none;stroke-opacity:0.95169079">AW-pi2</tspan></text>
  <g
     transform="matrix(0,1,1.0000001,0,207.49245,126.32284)"
     id="Shape2DView-3">
    <path
       style="fill:none;fill-rule:evenodd;stroke:#191919;stroke-width:0.34999999;stroke-miterlimit:4;stroke-dasharray:none"
       d="m -125,20 250,0"
       id="Shape2DView_nwe0000-6"
       inkscape:connector-curvature="0" />
    <path
       style="fill:none;fill-rule:evenodd;stroke:#191919;stroke-width:0.34999999;stroke-miterlimit:4;stroke-dasharray:none"
       d="m 125,20 0,-40"
       id="Shape2DView_nwe0001-7"
       inkscape:connector-curvature="0" />
    <path
       style="fill:none;fill-rule:evenodd;stroke:#191919;stroke-width:0.34999999;stroke-miterlimit:4;stroke-dasharray:none"
       d="m 125,-20 -250,0"
       id="Shape2DView_nwe0002-5"
       inkscape:connector-curvature="0" />
    <path
       style="fill:none;fill-rule:evenodd;stroke:#191919;stroke-width:0.34999999;stroke-miterlimit:4;stroke-dasharray:none"
       d="m -125,-20 0,40"
       id="Shape2DView_nwe0003-3"
       inkscape:connector-curvature="0" />
    <title
       id="title4234">Shape2DView</title>
  </g>
  <g
     transform="matrix(0,1,1.0000001,0,250.06816,126.26095)"
     id="Shape2DView-5">
    <path
       style="fill:none;fill-rule:evenodd;stroke:#191919;stroke-width:0.34999999;stroke-miterlimit:4;stroke-dasharray:none"
       d="m -125,20 250,0"
       id="Shape2DView_nwe0000-62"
       inkscape:connector-curvature="0" />
    <path
       style="fill:none;fill-rule:evenodd;stroke:#191919;stroke-width:0.34999999;stroke-miterlimit:4;stroke-dasharray:none"
       d="m 125,20 0,-40"
       id="Shape2DView_nwe0001-9"
       inkscape:connector-curvature="0" />
    <path
       style="fill:none;fill-rule:evenodd;stroke:#191919;stroke-width:0.34999999;stroke-miterlimit:4;stroke-dasharray:none"
       d="m 125,-20 -250,0"
       id="Shape2DView_nwe0002-1"
       inkscape:connector-curvature="0" />
    <path
       style="fill:none;fill-rule:evenodd;stroke:#191919;stroke-width:0.34999999;stroke-miterlimit:4;stroke-dasharray:none"
       d="m -125,-20 0,40"
       id="Shape2DView_nwe0003-2"
       inkscape:connector-curvature="0" />
    <title
       id="title4289">Shape2DView</title>
  </g>
  <g
     id="g4423"
     transform="matrix(0.02414195,0,0,0.02277671,101.8874,260.34985)"
     style="fill:#ffffff;stroke:#ff0000;stroke-width:12.0353756">
    <g
       id="g4425"
       style="fill:#ffffff;stroke:#ff0000;stroke-width:12.0353756">
      <g
         id="Cloud_x5F_Wind"
         style="fill:#ffffff;stroke:#ff0000;stroke-width:12.0353756">
        <g
           id="g4428"
           style="fill:#ffffff;stroke:#ff0000;stroke-width:12.0353756">
          <path
             id="path4430"
             d="m 427.9,125.3 c 72.5,0 139.8,36.1 180.1,96.7 l 14.1,21.2 25.4,-2.1 c 3.6,-0.3 7.2,-0.6 10.9,-0.6 71.5,0 129.7,58.2 129.7,129.7 0,23.9 19.3,43.2 43.2,43.2 23.9,0 43.2,-19.4 43.2,-43.2 C 874.5,253.4 781.3,157.9 665.4,154.1 608.4,81.5 521.2,38.8 427.9,38.8 267.2,38.8 135.3,164.7 125.8,323.1 55.5,360 10,433.4 10,514.4 c 0,119.2 97,216.2 216.2,216.2 23.9,0 43.2,-19.4 43.2,-43.2 0,-23.8 -19.3,-43.2 -43.2,-43.2 -71.5,0 -129.7,-58.2 -129.7,-129.7 0,-54.9 34.9,-104 86.9,-122.3 l 30.1,-10.6 -1.7,-40.1 c 0,-119.2 96.9,-216.2 216.1,-216.2 z m 432.4,317.1 c -34.6,0 -67.2,13.5 -91.7,38 -16.9,16.9 -16.9,44.2 0,61.1 16.9,16.9 44.2,16.9 61.1,0 8.2,-8.2 19,-12.7 30.6,-12.7 23.8,0 43.2,19.4 43.2,43.2 0,23.8 -19.4,43.2 -43.2,43.2 l -432.4,0 c -23.9,0 -43.2,19.4 -43.2,43.2 0,23.9 19.3,43.2 43.2,43.2 l 432.4,0 C 931.8,701.6 990,643.4 990,571.9 990,500.5 931.8,442.4 860.3,442.4 Z m -100.9,288.2 -389.1,0 c -23.9,0 -43.2,19.4 -43.2,43.2 0,23.9 19.3,43.2 43.2,43.2 l 389.1,0 c 15.9,0 28.8,12.9 28.8,28.8 0,15.9 -12.9,28.8 -28.8,28.8 -9.1,0 -17.5,-4.2 -23,-11.4 -14.4,-19.1 -41.5,-22.9 -60.6,-8.4 -19.1,14.4 -22.8,41.5 -8.4,60.6 22,29.1 55.5,45.8 91.9,45.8 63.6,0 115.3,-51.7 115.3,-115.3 0,-63.6 -51.6,-115.3 -115.2,-115.3 z"
             inkscape:connector-curvature="0"
             style="fill:#ffffff;stroke:#ff0000;stroke-width:12.0353756" />
        </g>
      </g>
    </g>
    <g
       id="g4432"
       style="fill:#ffffff;stroke:#ff0000;stroke-width:12.0353756" />
    <g
       id="g4434"
       style="fill:#ffffff;stroke:#ff0000;stroke-width:12.0353756" />
    <g
       id="g4436"
       style="fill:#ffffff;stroke:#ff0000;stroke-width:12.0353756" />
    <g
       id="g4438"
       style="fill:#ffffff;stroke:#ff0000;stroke-width:12.0353756" />
    <g
       id="g4440"
       style="fill:#ffffff;stroke:#ff0000;stroke-width:12.0353756" />
    <g
       id="g4442"
       style="fill:#ffffff;stroke:#ff0000;stroke-width:12.0353756" />
    <g
       id="g4444"
       style="fill:#ffffff;stroke:#ff0000;stroke-width:12.0353756" />
    <g
       id="g4446"
       style="fill:#ffffff;stroke:#ff0000;stroke-width:12.0353756" />
    <g
       id="g4448"
       style="fill:#ffffff;stroke:#ff0000;stroke-width:12.0353756" />
    <g
       id="g4450"
       style="fill:#ffffff;stroke:#ff0000;stroke-width:12.0353756" />
    <g
       id="g4452"
       style="fill:#ffffff;stroke:#ff0000;stroke-width:12.0353756" />
    <g
       id="g4454"
       style="fill:#ffffff;stroke:#ff0000;stroke-width:12.0353756" />
    <g
       id="g4456"
       style="fill:#ffffff;stroke:#ff0000;stroke-width:12.0353756" />
    <g
       id="g4458"
       style="fill:#ffffff;stroke:#ff0000;stroke-width:12.0353756" />
    <g
       id="g4460"
       style="fill:#ffffff;stroke:#ff0000;stroke-width:12.0353756" />
  </g>
  <g
     transform="matrix(0,1,1.0000001,0,293.64715,126.3672)"
     id="Shape2DView-5-7">
    <path
       style="fill:none;fill-rule:evenodd;stroke:#191919;stroke-width:0.34999999;stroke-miterlimit:4;stroke-dasharray:none"
       d="m -125,20 250,0"
       id="Shape2DView_nwe0000-62-0"
       inkscape:connector-curvature="0" />
    <path
       style="fill:none;fill-rule:evenodd;stroke:#191919;stroke-width:0.34999999;stroke-miterlimit:4;stroke-dasharray:none"
       d="m 125,20 0,-40"
       id="Shape2DView_nwe0001-9-9"
       inkscape:connector-curvature="0" />
    <path
       style="fill:none;fill-rule:evenodd;stroke:#191919;stroke-width:0.34999999;stroke-miterlimit:4;stroke-dasharray:none"
       d="m 125,-20 -250,0"
       id="Shape2DView_nwe0002-1-3"
       inkscape:connector-curvature="0" />
    <path
       style="fill:none;fill-rule:evenodd;stroke:#191919;stroke-width:0.34999999;stroke-miterlimit:4;stroke-dasharray:none"
       d="m -125,-20 0,40"
       id="Shape2DView_nwe0003-2-6"
       inkscape:connector-curvature="0" />
    <title
       id="title4289-0">Shape2DView</title>
  </g>
  <g
     transform="matrix(0,1,1.0000001,0,335.50023,126.47241)"
     id="Shape2DView-5-6">
    <path
       style="fill:none;fill-rule:evenodd;stroke:#191919;stroke-width:0.34999999;stroke-miterlimit:4;stroke-dasharray:none"
       d="m -125,20 250,0"
       id="Shape2DView_nwe0000-62-2"
       inkscape:connector-curvature="0" />
    <path
       style="fill:none;fill-rule:evenodd;stroke:#191919;stroke-width:0.34999999;stroke-miterlimit:4;stroke-dasharray:none"
       d="m 125,20 0,-40"
       id="Shape2DView_nwe0001-9-6"
       inkscape:connector-curvature="0" />
    <path
       style="fill:none;fill-rule:evenodd;stroke:#191919;stroke-width:0.34999999;stroke-miterlimit:4;stroke-dasharray:none"
       d="m 125,-20 -250,0"
       id="Shape2DView_nwe0002-1-1"
       inkscape:connector-curvature="0" />
    <path
       style="fill:none;fill-rule:evenodd;stroke:#191919;stroke-width:0.34999999;stroke-miterlimit:4;stroke-dasharray:none"
       d="m -125,-20 0,40"
       id="Shape2DView_nwe0003-2-8"
       inkscape:connector-curvature="0" />
    <title
       id="title4289-7">Shape2DView</title>
  </g>
  <text
     xml:space="preserve"
     style="font-style:normal;font-weight:normal;font-size:12.62037754px;line-height:125%;font-family:sans-serif;letter-spacing:0px;word-spacing:0px;fill:url(#linearGradient4663);fill-opacity:1;stroke:#ff0006;stroke-width:0.28222221;stroke-linecap:butt;stroke-linejoin:miter;stroke-miterlimit:4;stroke-dasharray:none;stroke-opacity:0.95169079"
     x="-259.41638"
     y="38.416901"
     id="text3395-6-0"
     sodipodi:linespacing="125%"
     transform="matrix(0,-0.93585982,1.0685361,0,0,0)"><tspan
       sodipodi:role="line"
       id="tspan3397-7-2"
       x="-259.41638"
       y="38.416901"
       style="font-size:5.56482172px;fill:url(#linearGradient4663);fill-opacity:0;stroke:#ff0006;stroke-width:0.28222221;stroke-miterlimit:4;stroke-dasharray:none;stroke-opacity:0.95169079">NO2</tspan></text>
  <text
     xml:space="preserve"
     style="font-style:normal;font-weight:normal;font-size:12.62037754px;line-height:125%;font-family:sans-serif;letter-spacing:0px;word-spacing:0px;fill:url(#linearGradient4923);fill-opacity:1;stroke:#ff0006;stroke-width:0.28222221;stroke-linecap:butt;stroke-linejoin:miter;stroke-miterlimit:4;stroke-dasharray:none;stroke-opacity:0.95169079"
     x="-256.79218"
     y="136.69226"
     id="text3395-6-0-2"
     sodipodi:linespacing="125%"
     transform="matrix(0,-0.93585982,1.0685361,0,0,0)"><tspan
       sodipodi:role="line"
       id="tspan3397-7-2-2"
       x="-256.79218"
       y="136.69226"
       style="font-size:5.56482172px;fill:url(#linearGradient4923);fill-opacity:0;stroke:#ff0006;stroke-width:0.28222221;stroke-miterlimit:4;stroke-dasharray:none;stroke-opacity:0.95169079">NO</tspan></text>
  <text
     xml:space="preserve"
     style="font-style:normal;font-weight:normal;font-size:12.62037754px;line-height:125%;font-family:sans-serif;letter-spacing:0px;word-spacing:0px;fill:url(#linearGradient4903);fill-opacity:1;stroke:#ff0006;stroke-width:0.28222221;stroke-linecap:butt;stroke-linejoin:miter;stroke-miterlimit:4;stroke-dasharray:none;stroke-opacity:0.95169079"
     x="-205.11566"
     y="135.04051"
     id="text3395-6-0-2-9"
     sodipodi:linespacing="125%"
     transform="matrix(0,-0.93585982,1.0685361,0,0,0)"><tspan
       sodipodi:role="line"
       id="tspan3397-7-2-2-7"
       x="-205.11566"
       y="135.04051"
       style="font-size:5.56482172px;fill:url(#linearGradient4903);fill-opacity:0;stroke:#ff0006;stroke-width:0.28222221;stroke-miterlimit:4;stroke-dasharray:none;stroke-opacity:0.95169079">OZ</tspan></text>
  <text
     xml:space="preserve"
     style="font-style:normal;font-weight:normal;font-size:12.62037754px;line-height:125%;font-family:sans-serif;letter-spacing:0px;word-spacing:0px;fill:url(#linearGradient4819);fill-opacity:1;stroke:#ff0006;stroke-width:0.28222221;stroke-linecap:butt;stroke-linejoin:miter;stroke-miterlimit:4;stroke-dasharray:none;stroke-opacity:0.95169079"
     x="-156.16991"
     y="135.16075"
     id="text3395-6-0-2-9-6"
     sodipodi:linespacing="125%"
     transform="matrix(0,-0.93585982,1.0685361,0,0,0)"><tspan
       sodipodi:role="line"
       id="tspan3397-7-2-2-7-1"
       x="-156.16991"
       y="135.16075"
       style="font-size:5.56482172px;fill:url(#linearGradient4819);fill-opacity:0;stroke:#ff0006;stroke-width:0.28222221;stroke-miterlimit:4;stroke-dasharray:none;stroke-opacity:0.95169079">CO</tspan></text>
  <text
     xml:space="preserve"
     style="font-style:normal;font-weight:normal;font-size:12.62037754px;line-height:125%;font-family:sans-serif;letter-spacing:0px;word-spacing:0px;fill:url(#linearGradient4871);fill-opacity:1;stroke:#ff0006;stroke-width:0.28222221;stroke-linecap:butt;stroke-linejoin:miter;stroke-miterlimit:4;stroke-dasharray:none;stroke-opacity:0.95169079"
     x="-104.01163"
     y="135.16075"
     id="text3395-6-0-2-9-6-9"
     sodipodi:linespacing="125%"
     transform="matrix(0,-0.93585982,1.0685361,0,0,0)"><tspan
       sodipodi:role="line"
       id="tspan3397-7-2-2-7-1-3"
       x="-104.01163"
       y="135.16075"
       style="font-size:5.56482172px;fill:url(#linearGradient4871);fill-opacity:0;stroke:#ff0006;stroke-width:0.28222221;stroke-miterlimit:4;stroke-dasharray:none;stroke-opacity:0.95169079">SO2</tspan></text>
  <path
     style="fill:none;fill-rule:evenodd;stroke:#000000;stroke-width:0.28222221px;stroke-linecap:butt;stroke-linejoin:miter;stroke-opacity:1"
     d="m 146.06123,77.063097 c 0.66695,1.333892 1.3339,2.667785 2.00084,4.001677 0.40017,0.800337 0.87929,1.565848 1.2005,2.401005 0.3486,0.906363 0.51476,1.87303 0.80034,2.801177 0.2481,0.80632 0.56857,1.589837 0.80034,2.401006 0.30218,1.057633 0.4525,2.157831 0.80033,3.201342 0.32124,0.96373 0.87926,1.837442 1.20051,2.801174 0.69567,2.08702 0.94449,4.302913 1.60067,6.402682 1.28613,4.11563 1.2142,2.2073 2.00084,6.40269 0.19818,1.05699 0.17483,2.14979 0.40016,3.20134 0.97732,4.56083 0.81849,0.12707 1.60067,5.60235 0.11319,0.79229 -0.13157,1.61156 0,2.40101 0.1387,0.83214 0.66165,1.56885 0.80034,2.401 0.13157,0.78945 0,1.60067 0,2.40101 0,0.80033 0,1.60067 0,2.401 0,0.80034 -0.0614,1.60303 0,2.40101 0.0723,0.94043 0.32783,1.86075 0.40017,2.80117 0.0614,0.79798 -0.13158,1.61156 0,2.40101 0.13869,0.83215 0.67205,1.56719 0.80033,2.40101 0.14198,0.92286 0,1.86745 0,2.80117 0,0.80034 0,1.60067 0,2.40101 0,3.7349 0,7.4698 0,11.2047 0,4.40184 0,8.80369 0,13.20553 0,1.46728 0,2.93457 0,4.40185 0,0.53355 0.0755,1.07247 0,1.60067 -0.0597,0.41757 -0.33082,0.78443 -0.40017,1.2005 -0.0658,0.39472 0.0496,0.80343 0,1.20051 -0.0844,0.6749 -0.3158,1.32593 -0.40016,2.00083 -0.13134,1.0507 0.13133,2.15065 0,3.20134 -0.0523,0.41856 -0.34785,0.78195 -0.40017,1.20051 -0.13236,1.05887 0,2.13423 0,3.20134 0,0.53356 0.0755,1.07248 0,1.60067 -0.0597,0.41758 -0.33082,0.78443 -0.40017,1.2005 -0.0658,0.39473 0,0.80034 0,1.20051 0,0.66694 0,1.33389 0,2.00084 0,0.40017 0.0658,0.80578 0,1.2005 -0.0693,0.41608 -0.33082,0.78443 -0.40017,1.20051 -0.10964,0.65787 0.1308,1.34684 0,2.00083 -0.0827,0.41362 -0.33082,0.78443 -0.40017,1.2005 -0.10964,0.65788 0.13081,1.34685 0,2.00084 -0.0827,0.41363 -0.31744,0.78689 -0.40016,1.20051 -0.0523,0.26159 0.0523,0.53874 0,0.80033 -0.0827,0.41363 -0.31744,0.78689 -0.40017,1.20051 -0.0785,0.39239 0.0971,0.81228 0,1.2005 -0.10231,0.40922 -0.31744,0.78688 -0.40017,1.2005 -0.0795,0.39749 0,2.10797 0,2.40101 0,0.13339 0.0597,0.28086 0,0.40017 -0.49449,0.98897 -0.40016,-0.13813 -0.40016,0.80033"
     id="path4925"
     inkscape:connector-curvature="0" />
</svg>
