<?xml version="1.0" encoding="UTF-8" standalone="no"?>
<!-- Created with Inkscape (http://www.inkscape.org/) -->

<svg
   xmlns:dc="http://purl.org/dc/elements/1.1/"
   xmlns:cc="http://creativecommons.org/ns#"
   xmlns:rdf="http://www.w3.org/1999/02/22-rdf-syntax-ns#"
   xmlns:svg="http://www.w3.org/2000/svg"
   xmlns="http://www.w3.org/2000/svg"
   xmlns:sodipodi="http://sodipodi.sourceforge.net/DTD/sodipodi-0.dtd"
   xmlns:inkscape="http://www.inkscape.org/namespaces/inkscape"
   width="210mm"
   height="297mm"
   viewBox="0 0 744.09448819 1052.3622047"
   id="svg2"
   version="1.1"
   inkscape:version="0.91 r13725"
   sodipodi:docname="nombre.svg">
  <defs
     id="defs4" />
  <sodipodi:namedview
     id="base"
     pagecolor="#ffffff"
     bordercolor="#666666"
     borderopacity="1.0"
     inkscape:pageopacity="0.0"
     inkscape:pageshadow="2"
     inkscape:zoom="0.7"
     inkscape:cx="-15.034635"
     inkscape:cy="853.15743"
     inkscape:document-units="px"
     inkscape:current-layer="text3336"
     showgrid="false"
     inkscape:window-width="1301"
     inkscape:window-height="744"
     inkscape:window-x="65"
     inkscape:window-y="24"
     inkscape:window-maximized="1" />
  <metadata
     id="metadata7">
    <rdf:RDF>
      <cc:Work
         rdf:about="">
        <dc:format>image/svg+xml</dc:format>
        <dc:type
           rdf:resource="http://purl.org/dc/dcmitype/StillImage" />
      </cc:Work>
    </rdf:RDF>
  </metadata>
  <g
     inkscape:label="Capa 1"
     inkscape:groupmode="layer"
     id="layer1">
    <g
       style="font-style:normal;font-variant:normal;font-weight:bold;font-stretch:normal;font-size:62.5px;line-height:125%;font-family:sans-serif;-inkscape-font-specification:'sans-serif Bold';letter-spacing:0px;word-spacing:0px;fill:#000000;fill-opacity:1;stroke:none;stroke-width:1px;stroke-linecap:butt;stroke-linejoin:miter;stroke-opacity:1"
       id="text3336">
      <path
         d="m 133.38623,312.63284 -18.37158,0 -2.89917,8.30078 -11.8103,0 16.87622,-45.56274 14.00756,0 16.87623,45.56274 -11.81031,0 -2.86865,-8.30078 z m -15.44189,-8.45337 12.48169,0 -6.22559,-18.12744 -6.2561,18.12744 z"
         style=""
         id="path3375" />
      <path
         d="m 153.58887,273.44827 10.92529,0 0,47.48535 -10.92529,0 0,-47.48535 z"
         style=""
         id="path3377" />
      <path
         d="m 175.07324,273.44827 10.9253,0 0,47.48535 -10.9253,0 0,-47.48535 z"
         style=""
         id="path3379" />
      <path
         d="m 196.55762,286.75394 10.92529,0 0,34.17968 -10.92529,0 0,-34.17968 z m 0,-13.30567 10.92529,0 0,8.91114 -10.92529,0 0,-8.91114 z"
         style=""
         id="path3381" />
      <path
         d="m 250.97622,300.12064 0,20.81298 -10.98633,0 0,-3.38745 0,-12.54272 q 0,-4.42505 -0.21363,-6.10352 -0.1831,-1.67846 -0.67138,-2.47192 -0.64087,-1.06812 -1.7395,-1.64795 -1.09864,-0.61035 -2.50245,-0.61035 -3.41796,0 -5.37109,2.65503 -1.95312,2.62451 -1.95312,7.2937 l 0,16.81518 -10.9253,0 0,-34.17968 10.9253,0 0,5.00488 q 2.47192,-2.99072 5.24902,-4.39453 2.7771,-1.43433 6.13403,-1.43433 5.92041,0 8.97217,3.63159 3.08228,3.6316 3.08228,10.55909 z"
         id="path3383"
         inkscape:connector-curvature="0" />
      <path
         d="m 260.73608,298.5032 19.16504,0 0,8.88062 -19.16504,0 0,-8.88062 z"
         style=""
         id="path3385" />
      <path
         d="m 282.40356,275.37088 11.26099,0 7.87354,33.11157 7.8125,-33.11157 11.32202,0 7.8125,33.11157 7.87353,-33.11157 11.16944,0 -10.74219,45.56274 -13.54981,0 -8.27026,-34.63745 -8.17871,34.63745 -13.54981,0 -10.83374,-45.56274 z"
         style=""
         id="path3387" />
      <path
         d="m 367.8833,305.55276 q -3.41797,0 -5.15747,1.15967 -1.70898,1.15967 -1.70898,3.41797 0,2.0752 1.37329,3.26538 1.40381,1.15967 3.87573,1.15967 3.08227,0 5.18799,-2.19727 2.10571,-2.22778 2.10571,-5.55419 l 0,-1.25123 -5.67627,0 z m 16.69312,-4.11987 0,19.50073 -11.01685,0 0,-5.06591 q -2.19727,3.11279 -4.94385,4.54712 -2.74658,1.4038 -6.68335,1.4038 -5.31006,0 -8.63647,-3.08227 Q 350,315.62357 350,310.67972 q 0,-6.01196 4.11987,-8.81958 4.15039,-2.80762 13.00049,-2.80762 l 6.43921,0 0,-0.85449 q 0,-2.594 -2.04468,-3.78418 -2.04468,-1.2207 -6.37817,-1.2207 -3.50952,0 -6.53076,0.7019 -3.02124,0.7019 -5.61524,2.10571 l 0,-8.3313 q 3.50952,-0.85449 7.04956,-1.28173 3.54004,-0.45777 7.08008,-0.45777 9.24683,0 13.33618,3.66211 4.11988,3.63159 4.11988,11.84082 z"
         style=""
         id="path3389" />
      <path
         d="m 388.3606,286.75394 10.92529,0 9.18579,23.19336 7.8125,-23.19336 10.92529,0 -14.37378,37.41455 q -2.16674,5.70678 -5.06591,7.96509 -2.86866,2.28881 -7.59888,2.28881 l -6.31714,0 0,-7.17163 3.41797,0 q 2.7771,0 4.02832,-0.88501 1.28174,-0.88501 1.98364,-3.17382 l 0.30518,-0.94605 -15.22827,-35.49194 z"
         style=""
         id="path3391" />
      <path
         d="m 459.00879,296.0618 q -1.43433,-0.67139 -2.86865,-0.97656 -1.40381,-0.3357 -2.83814,-0.3357 -4.21142,0 -6.50024,2.71607 -2.2583,2.68554 -2.2583,7.72094 l 0,15.74707 -10.9253,0 0,-34.17968 10.9253,0 0,5.61523 q 2.10571,-3.35693 4.82177,-4.88281 2.74659,-1.5564 6.56128,-1.5564 0.54932,0 1.19019,0.061 0.64087,0.0305 1.86157,0.1831 l 0.0305,9.8877 z"
         style=""
         id="path3393" />
      <path
         d="m 479.82178,305.55276 q -3.41797,0 -5.15747,1.15967 -1.70899,1.15967 -1.70899,3.41797 0,2.0752 1.37329,3.26538 1.40381,1.15967 3.87574,1.15967 3.08227,0 5.18798,-2.19727 2.10572,-2.22778 2.10572,-5.55419 l 0,-1.25123 -5.67627,0 z m 16.69311,-4.11987 0,19.50073 -11.01684,0 0,-5.06591 q -2.19727,3.11279 -4.94385,4.54712 -2.74658,1.4038 -6.68335,1.4038 -5.31006,0 -8.63648,-3.08227 -3.29589,-3.11279 -3.29589,-8.05664 0,-6.01196 4.11987,-8.81958 4.15039,-2.80762 13.00049,-2.80762 l 6.43921,0 0,-0.85449 q 0,-2.594 -2.04468,-3.78418 -2.04468,-1.2207 -6.37817,-1.2207 -3.50953,0 -6.53077,0.7019 -3.02124,0.7019 -5.61523,2.10571 l 0,-8.3313 q 3.50952,-0.85449 7.04956,-1.28173 3.54004,-0.45777 7.08008,-0.45777 9.24682,0 13.33618,3.66211 4.11987,3.63159 4.11987,11.84082 z"
         style=""
         id="path3395" />
      <g
         id="g3502"
         transform="matrix(0.07142856,0,0,0.07539338,507.67966,266.22236)">
        <g
           id="g3504">
          <g
             id="Cloud_x5F_Wind">
            <g
               id="g3507">
              <path
                 id="path3509"
                 d="m 427.9,125.3 c 72.5,0 139.8,36.1 180.1,96.7 l 14.1,21.2 25.4,-2.1 c 3.6,-0.3 7.2,-0.6 10.9,-0.6 71.5,0 129.7,58.2 129.7,129.7 0,23.9 19.3,43.2 43.2,43.2 23.9,0 43.2,-19.4 43.2,-43.2 C 874.5,253.4 781.3,157.9 665.4,154.1 608.4,81.5 521.2,38.8 427.9,38.8 267.2,38.8 135.3,164.7 125.8,323.1 55.5,360 10,433.4 10,514.4 c 0,119.2 97,216.2 216.2,216.2 23.9,0 43.2,-19.4 43.2,-43.2 0,-23.8 -19.3,-43.2 -43.2,-43.2 -71.5,0 -129.7,-58.2 -129.7,-129.7 0,-54.9 34.9,-104 86.9,-122.3 l 30.1,-10.6 -1.7,-40.1 c 0,-119.2 96.9,-216.2 216.1,-216.2 z m 432.4,317.1 c -34.6,0 -67.2,13.5 -91.7,38 -16.9,16.9 -16.9,44.2 0,61.1 16.9,16.9 44.2,16.9 61.1,0 8.2,-8.2 19,-12.7 30.6,-12.7 23.8,0 43.2,19.4 43.2,43.2 0,23.8 -19.4,43.2 -43.2,43.2 l -432.4,0 c -23.9,0 -43.2,19.4 -43.2,43.2 0,23.9 19.3,43.2 43.2,43.2 l 432.4,0 C 931.8,701.6 990,643.4 990,571.9 990,500.5 931.8,442.4 860.3,442.4 Z m -100.9,288.2 -389.1,0 c -23.9,0 -43.2,19.4 -43.2,43.2 0,23.9 19.3,43.2 43.2,43.2 l 389.1,0 c 15.9,0 28.8,12.9 28.8,28.8 0,15.9 -12.9,28.8 -28.8,28.8 -9.1,0 -17.5,-4.2 -23,-11.4 -14.4,-19.1 -41.5,-22.9 -60.6,-8.4 -19.1,14.4 -22.8,41.5 -8.4,60.6 22,29.1 55.5,45.8 91.9,45.8 63.6,0 115.3,-51.7 115.3,-115.3 0,-63.6 -51.6,-115.3 -115.2,-115.3 z"
                 inkscape:connector-curvature="0" />
            </g>
          </g>
        </g>
        <g
           id="g3511" />
        <g
           id="g3513" />
        <g
           id="g3515" />
        <g
           id="g3517" />
        <g
           id="g3519" />
        <g
           id="g3521" />
        <g
           id="g3523" />
        <g
           id="g3525" />
        <g
           id="g3527" />
        <g
           id="g3529" />
        <g
           id="g3531" />
        <g
           id="g3533" />
        <g
           id="g3535" />
        <g
           id="g3537" />
        <g
           id="g3539" />
      </g>
    </g>
  </g>
</svg>
