<?xml version="1.0" encoding="utf-8"?>
<!-- Svg Vector Icons : http://www.onlinewebfonts.com/icon -->
<!DOCTYPE svg PUBLIC "-//W3C//DTD SVG 1.1//EN" "http://www.w3.org/Graphics/SVG/1.1/DTD/svg11.dtd">
<svg version="1.1" xmlns="http://www.w3.org/2000/svg" xmlns:xlink="http://www.w3.org/1999/xlink" x="0px" y="0px" viewBox="0 0 1000 1000" enable-background="new 0 0 1000 1000" xml:space="preserve">
<metadata> Svg Vector Icons : http://www.onlinewebfonts.com/icon </metadata>
<g><g><g id="Cloud_x5F_Wind"><g><path d="M427.9,125.3c72.5,0,139.8,36.1,180.1,96.7l14.1,21.2l25.4-2.1c3.6-0.3,7.2-0.6,10.9-0.6c71.5,0,129.7,58.2,129.7,129.7c0,23.9,19.3,43.2,43.2,43.2s43.2-19.4,43.2-43.2c0-116.8-93.2-212.3-209.1-216.1C608.4,81.5,521.2,38.8,427.9,38.8c-160.7,0-292.6,125.9-302.1,284.3C55.5,360,10,433.4,10,514.4c0,119.2,97,216.2,216.2,216.2c23.9,0,43.2-19.4,43.2-43.2s-19.3-43.2-43.2-43.2c-71.5,0-129.7-58.2-129.7-129.7c0-54.9,34.9-104,86.9-122.3l30.1-10.6l-1.7-40.1C211.8,222.3,308.7,125.3,427.9,125.3z M860.3,442.4c-34.6,0-67.2,13.5-91.7,38c-16.9,16.9-16.9,44.2,0,61.1c16.9,16.9,44.2,16.9,61.1,0c8.2-8.2,19-12.7,30.6-12.7c23.8,0,43.2,19.4,43.2,43.2c0,23.8-19.4,43.2-43.2,43.2H427.9c-23.9,0-43.2,19.4-43.2,43.2c0,23.9,19.3,43.2,43.2,43.2h432.4c71.5,0,129.7-58.2,129.7-129.7C990,500.5,931.8,442.4,860.3,442.4z M759.4,730.6H370.3c-23.9,0-43.2,19.4-43.2,43.2c0,23.9,19.3,43.2,43.2,43.2h389.1c15.9,0,28.8,12.9,28.8,28.8s-12.9,28.8-28.8,28.8c-9.1,0-17.5-4.2-23-11.4c-14.4-19.1-41.5-22.9-60.6-8.4c-19.1,14.4-22.8,41.5-8.4,60.6c22,29.1,55.5,45.8,91.9,45.8c63.6,0,115.3-51.7,115.3-115.3S823,730.6,759.4,730.6z"/></g></g></g><g></g><g></g><g></g><g></g><g></g><g></g><g></g><g></g><g></g><g></g><g></g><g></g><g></g><g></g><g></g></g>
</svg>